# xmcd
#
# Track frame offsets:
#	150
#	17480
#	35882
#	60272
#	74300
#	87257
#	104412
#	121772
#	147485
#	160787
#	177407
#	190147
#	208297
#	222725
#	242915
#	257710
#	269972
#	287607
#	300365
#	313057
# Disc length: 4443 seconds
# Revision: 2
# Processed by: cddbd v1.5.2PL0 Copyright (c) Steve Scherf et al.
#
# Submitted via: libkcddb 0.31
#
DISCID=35115914
DTITLE=LAINTON E SEU TECLADOS - 20 SUCESSOS
DYEAR=1900
DGENRE=Unknown
TTITLE0=A NORDESTINA
TTITLE1=ADEUS SOLIDØ£O
TTITLE2=SONHAR CONTIGO-MARIA HELENA-ONDE ANDARØ¡
TTITLE3=PRA FICAR CONTIGO
TTITLE4=CINDERELA
TTITLE5=SE DEUS NE OUVISSE
TTITLE6=COMPANHEIRA DE ALTA LUZ
TTITLE7=TIRA A SOLIDØ£O DE MIM-CADEIRA DE RODAS
TTITLE8=VERØ'NICA
TTITLE9=YOLANDA
TTITLE10=DIANA
TTITLE11=A FOTO
TTITLE12=ANJO AZUL
TTITLE13=SONHO LINDO
TTITLE14=A NOITE DO MEU BEM
TTITLE15=FICA COMIGO ESTA NOITE
TTITLE16=LEMBRANØ§AS
TTITLE17=NEGUE
TTITLE18=PENSANDO EM TI
TTITLE19=MORANGO DO NORDESTE
EXTD=
EXTT0=
EXTT1=
EXTT2=
EXTT3=
EXTT4=
EXTT5=
EXTT6=
EXTT7=
EXTT8=
EXTT9=
EXTT10=
EXTT11=
EXTT12=
EXTT13=
EXTT14=
EXTT15=
EXTT16=
EXTT17=
EXTT18=
EXTT19=
PLAYORDER=
